<svg xmlns="http://www.w3.org/2000/svg" xmlns:xlink="http://www.w3.org/1999/xlink" width="816" zoomAndPan="magnify" viewBox="0 0 612 791.999994" height="1056" preserveAspectRatio="xMidYMid meet" version="1.0"><defs><filter x="0%" y="0%" width="100%" height="100%" id="60fef15844"><feColorMatrix values="0 0 0 0 1 0 0 0 0 1 0 0 0 0 1 0 0 0 1 0" color-interpolation-filters="sRGB"/></filter><clipPath id="c91d197686"><path d="M 370 687 L 406.375 687 L 406.375 759 L 370 759 Z M 370 687 " clip-rule="nonzero"/></clipPath><clipPath id="f5b91a029b"><path d="M 333 723 L 406.375 723 L 406.375 792 L 333 792 Z M 333 723 " clip-rule="nonzero"/></clipPath><clipPath id="c5d5098c90"><path d="M 290.875 763 L 318 763 L 318 791 L 290.875 791 Z M 290.875 763 " clip-rule="nonzero"/></clipPath><clipPath id="767704b204"><path d="M 370 773 L 406.375 773 L 406.375 792 L 370 792 Z M 370 773 " clip-rule="nonzero"/></clipPath><clipPath id="39997096e2"><path d="M 393 770 L 406.375 770 L 406.375 792 L 393 792 Z M 393 770 " clip-rule="nonzero"/></clipPath><clipPath id="e838783a8e"><path d="M 231.53125 0 L 280 0 L 280 53 L 231.53125 53 Z M 231.53125 0 " clip-rule="nonzero"/></clipPath><clipPath id="31810e154d"><path d="M 242 0 L 311.511719 0 L 311.511719 15 L 242 15 Z M 242 0 " clip-rule="nonzero"/></clipPath><mask id="725a94842d"><g filter="url(#60fef15844)"><rect x="-61.2" width="734.4" fill="#000000" y="-79.199999" height="950.399992" fill-opacity="0.532"/></g></mask><clipPath id="930d0db7aa"><rect x="0" width="31" y="0" height="32"/></clipPath><mask id="eb0adcf422"><g filter="url(#60fef15844)"><rect x="-61.2" width="734.4" fill="#000000" y="-79.199999" height="950.399992" fill-opacity="0.642"/></g></mask><clipPath id="39db751256"><path d="M 2 2 L 23.800781 2 L 23.800781 17 L 2 17 Z M 2 2 " clip-rule="nonzero"/></clipPath><clipPath id="21023284a5"><rect x="0" width="24" y="0" height="18"/></clipPath><mask id="1296bda3ae"><g filter="url(#60fef15844)"><rect x="-61.2" width="734.4" fill="#000000" y="-79.199999" height="950.399992" fill-opacity="0.346"/></g></mask><clipPath id="a67a14830f"><rect x="0" width="24" y="0" height="18"/></clipPath><clipPath id="790645bfea"><path d="M 238 39 L 264 39 L 264 64.5 L 238 64.5 Z M 238 39 " clip-rule="nonzero"/></clipPath><mask id="00e9c0addc"><g filter="url(#60fef15844)"><rect x="-61.2" width="734.4" fill="#000000" y="-79.199999" height="950.399992" fill-opacity="0.532"/></g></mask><clipPath id="a641326fd5"><path d="M 1 0.121094 L 24 0.121094 L 24 25.5 L 1 25.5 Z M 1 0.121094 " clip-rule="nonzero"/></clipPath><clipPath id="c03885d9d3"><rect x="0" width="26" y="0" height="26"/></clipPath><mask id="8cbc7a0044"><g filter="url(#60fef15844)"><rect x="-61.2" width="734.4" fill="#000000" y="-79.199999" height="950.399992" fill-opacity="0.532"/></g></mask><clipPath id="8a96241350"><path d="M 0.320312 1 L 18 1 L 18 20 L 0.320312 20 Z M 0.320312 1 " clip-rule="nonzero"/></clipPath><clipPath id="579f37e387"><rect x="0" width="20" y="0" height="22"/></clipPath><mask id="419690913c"><g filter="url(#60fef15844)"><rect x="-61.2" width="734.4" fill="#000000" y="-79.199999" height="950.399992" fill-opacity="0.532"/></g></mask><clipPath id="2dc1b2e767"><rect x="0" width="10" y="0" height="12"/></clipPath><clipPath id="088cc29301"><path d="M 329 0 L 377.464844 0 L 377.464844 53 L 329 53 Z M 329 0 " clip-rule="nonzero"/></clipPath><clipPath id="4c8df4bd78"><path d="M 297.214844 0 L 367 0 L 367 15 L 297.214844 15 Z M 297.214844 0 " clip-rule="nonzero"/></clipPath><mask id="acdb33f23f"><g filter="url(#60fef15844)"><rect x="-61.2" width="734.4" fill="#000000" y="-79.199999" height="950.399992" fill-opacity="0.532"/></g></mask><clipPath id="72515e581d"><rect x="0" width="31" y="0" height="32"/></clipPath><mask id="a666dbf4da"><g filter="url(#60fef15844)"><rect x="-61.2" width="734.4" fill="#000000" y="-79.199999" height="950.399992" fill-opacity="0.642"/></g></mask><clipPath id="a002905cef"><path d="M 0.078125 2 L 22 2 L 22 17 L 0.078125 17 Z M 0.078125 2 " clip-rule="nonzero"/></clipPath><clipPath id="165d88b39f"><rect x="0" width="24" y="0" height="18"/></clipPath><mask id="6557b173f9"><g filter="url(#60fef15844)"><rect x="-61.2" width="734.4" fill="#000000" y="-79.199999" height="950.399992" fill-opacity="0.346"/></g></mask><clipPath id="9abf6e1475"><rect x="0" width="25" y="0" height="18"/></clipPath><clipPath id="8f44165a83"><path d="M 345 39 L 371 39 L 371 64.5 L 345 64.5 Z M 345 39 " clip-rule="nonzero"/></clipPath><mask id="00348a2c5e"><g filter="url(#60fef15844)"><rect x="-61.2" width="734.4" fill="#000000" y="-79.199999" height="950.399992" fill-opacity="0.532"/></g></mask><clipPath id="51206547f2"><path d="M 2 0.121094 L 25 0.121094 L 25 25.5 L 2 25.5 Z M 2 0.121094 " clip-rule="nonzero"/></clipPath><clipPath id="3931148b4f"><rect x="0" width="26" y="0" height="26"/></clipPath><mask id="3b92d322df"><g filter="url(#60fef15844)"><rect x="-61.2" width="734.4" fill="#000000" y="-79.199999" height="950.399992" fill-opacity="0.532"/></g></mask><clipPath id="5d64d20139"><path d="M 2 1 L 19.800781 1 L 19.800781 20 L 2 20 Z M 2 1 " clip-rule="nonzero"/></clipPath><clipPath id="c67f493fbc"><rect x="0" width="20" y="0" height="22"/></clipPath><mask id="5d7cc72c44"><g filter="url(#60fef15844)"><rect x="-61.2" width="734.4" fill="#000000" y="-79.199999" height="950.399992" fill-opacity="0.532"/></g></mask><clipPath id="539181c8ce"><rect x="0" width="10" y="0" height="12"/></clipPath></defs><rect x="-61.2" width="734.4" fill="#ffffff" y="-79.199999" height="950.399992" fill-opacity="1"/><rect x="-61.2" width="734.4" fill="#ffffff" y="-79.199999" height="950.399992" fill-opacity="1"/><g clip-path="url(#c91d197686)"><path fill="#0022af" d="M 406.523438 687.058594 L 406.523438 758.839844 L 370.632812 722.949219 Z M 406.523438 687.058594 " fill-opacity="1" fill-rule="nonzero"/></g><g clip-path="url(#f5b91a029b)"><path fill="#015cfe" d="M 406.523438 723.738281 L 406.523438 796.472656 L 406.3125 796.472656 L 406.285156 796.5 L 406.257812 796.472656 L 333.789062 796.472656 L 351.632812 778.628906 L 354.761719 775.496094 L 360.359375 769.902344 Z M 406.523438 723.738281 " fill-opacity="1" fill-rule="nonzero"/></g><g clip-path="url(#c5d5098c90)"><path fill="#015cfe" d="M 304.433594 790.761719 L 290.878906 777.210938 L 304.433594 763.65625 L 317.988281 777.210938 Z M 304.433594 790.761719 " fill-opacity="1" fill-rule="nonzero"/></g><g clip-path="url(#767704b204)"><path fill="#0022af" d="M 393.265625 773.082031 L 398.464844 778.277344 L 406.523438 786.339844 L 406.523438 796.472656 L 406.3125 796.472656 L 406.285156 796.5 L 406.257812 796.472656 L 371.394531 796.472656 L 370.632812 795.710938 Z M 393.265625 773.082031 " fill-opacity="1" fill-rule="nonzero"/></g><path fill="#015cfe" d="M 322.660156 779.371094 L 313.746094 770.457031 L 322.660156 761.542969 L 331.574219 770.457031 Z M 322.660156 779.371094 " fill-opacity="1" fill-rule="nonzero"/><g clip-path="url(#39997096e2)"><path fill="#29292b" d="M 406.285156 770.457031 L 406.523438 770.695312 L 406.523438 796.261719 L 406.285156 796.5 L 406.257812 796.472656 L 393.265625 783.476562 Z M 406.285156 770.457031 " fill-opacity="1" fill-rule="nonzero"/></g><path fill="#0022af" d="M 338.105469 768.691406 L 347.289062 777.878906 L 365.882812 796.472656 L 310.324219 796.472656 Z M 338.105469 768.691406 " fill-opacity="1" fill-rule="nonzero"/><path fill="#0022af" d="M 356.980469 777.714844 L 338.105469 758.839844 L 356.980469 739.964844 L 375.855469 758.839844 Z M 356.980469 777.714844 " fill-opacity="1" fill-rule="nonzero"/><path fill="#29292b" d="M 370.632812 746.394531 L 349.433594 725.195312 L 370.632812 703.996094 L 391.832031 725.195312 Z M 370.632812 746.394531 " fill-opacity="1" fill-rule="nonzero"/><g clip-path="url(#e838783a8e)"><path fill="#015cfe" d="M 279.601562 -0.00390625 L 231.554688 -0.00390625 L 231.554688 52.492188 Z M 279.601562 -0.00390625 " fill-opacity="1" fill-rule="nonzero"/></g><g clip-path="url(#31810e154d)"><path fill="#04006c" d="M 311.488281 -0.00390625 L 297.578125 14.523438 L 242.433594 14.523438 L 256.34375 -0.00390625 Z M 311.488281 -0.00390625 " fill-opacity="1" fill-rule="nonzero"/></g><g mask="url(#725a94842d)"><g transform="matrix(1, 0, 0, 1, 248, 18)"><g clip-path="url(#930d0db7aa)"><path fill="#015cfe" d="M 28.34375 0.453125 L 1.066406 0.453125 L 1.066406 30.25 Z M 28.34375 0.453125 " fill-opacity="1" fill-rule="nonzero"/></g></g></g><path fill="#04006c" d="M 275.351562 15.472656 L 261.441406 29.996094 L 254.652344 29.996094 L 268.5625 15.472656 Z M 275.351562 15.472656 " fill-opacity="1" fill-rule="nonzero"/><g mask="url(#eb0adcf422)"><g transform="matrix(1, 0, 0, 1, 263, 13)"><g clip-path="url(#21023284a5)"><g clip-path="url(#39db751256)"><path fill="#04006c" d="M 23.089844 2.472656 L 9.179688 16.996094 L 2.394531 16.996094 L 16.304688 2.472656 Z M 23.089844 2.472656 " fill-opacity="1" fill-rule="nonzero"/></g></g></g></g><g mask="url(#1296bda3ae)"><g transform="matrix(1, 0, 0, 1, 274, 13)"><g clip-path="url(#a67a14830f)"><path fill="#04006c" d="M 22.40625 2.472656 L 8.496094 16.996094 L 1.707031 16.996094 L 15.617188 2.472656 Z M 22.40625 2.472656 " fill-opacity="1" fill-rule="nonzero"/></g></g></g><path fill="#0022af" d="M 302.445312 -0.00390625 L 288.535156 14.523438 L 281.75 14.523438 L 295.660156 -0.00390625 Z M 302.445312 -0.00390625 " fill-opacity="0.533" fill-rule="nonzero"/><g clip-path="url(#790645bfea)"><g mask="url(#00e9c0addc)"><g transform="matrix(1, 0, 0, 1, 238, 39)"><g clip-path="url(#c03885d9d3)"><g clip-path="url(#a641326fd5)"><path fill="#015cfe" d="M 23.746094 0.980469 L 1.554688 0.980469 L 1.554688 25.222656 Z M 23.746094 0.980469 " fill-opacity="1" fill-rule="nonzero"/></g></g></g></g></g><g mask="url(#8cbc7a0044)"><g transform="matrix(1, 0, 0, 1, 238, 18)"><g clip-path="url(#579f37e387)"><g clip-path="url(#8a96241350)"><path fill="#04006c" d="M 17.902344 1.089844 L 0.96875 1.089844 L 0.96875 19.59375 Z M 17.902344 1.089844 " fill-opacity="1" fill-rule="nonzero"/></g></g></g></g><g mask="url(#419690913c)"><g transform="matrix(1, 0, 0, 1, 265, 5)"><g clip-path="url(#2dc1b2e767)"><path fill="#015cfe" d="M 8.390625 1.746094 L 1.296875 1.746094 L 1.296875 9.496094 Z M 8.390625 1.746094 " fill-opacity="1" fill-rule="nonzero"/></g></g></g><g clip-path="url(#088cc29301)"><path fill="#015cfe" d="M 329.394531 -0.00390625 L 377.445312 -0.00390625 L 377.445312 52.492188 Z M 329.394531 -0.00390625 " fill-opacity="1" fill-rule="nonzero"/></g><g clip-path="url(#4c8df4bd78)"><path fill="#04006c" d="M 297.511719 -0.00390625 L 311.421875 14.523438 L 366.566406 14.523438 L 352.65625 -0.00390625 Z M 297.511719 -0.00390625 " fill-opacity="1" fill-rule="nonzero"/></g><g mask="url(#acdb33f23f)"><g transform="matrix(1, 0, 0, 1, 330, 18)"><g clip-path="url(#72515e581d)"><path fill="#015cfe" d="M 2.65625 0.453125 L 29.929688 0.453125 L 29.929688 30.25 Z M 2.65625 0.453125 " fill-opacity="1" fill-rule="nonzero"/></g></g></g><path fill="#04006c" d="M 333.648438 15.472656 L 347.558594 29.996094 L 354.34375 29.996094 L 340.433594 15.472656 Z M 333.648438 15.472656 " fill-opacity="1" fill-rule="nonzero"/><g mask="url(#a666dbf4da)"><g transform="matrix(1, 0, 0, 1, 322, 13)"><g clip-path="url(#165d88b39f)"><g clip-path="url(#a002905cef)"><path fill="#04006c" d="M 0.90625 2.472656 L 14.816406 16.996094 L 21.605469 16.996094 L 7.695312 2.472656 Z M 0.90625 2.472656 " fill-opacity="1" fill-rule="nonzero"/></g></g></g></g><g mask="url(#6557b173f9)"><g transform="matrix(1, 0, 0, 1, 311, 13)"><g clip-path="url(#9abf6e1475)"><path fill="#04006c" d="M 1.59375 2.472656 L 15.503906 16.996094 L 22.289062 16.996094 L 8.378906 2.472656 Z M 1.59375 2.472656 " fill-opacity="1" fill-rule="nonzero"/></g></g></g><path fill="#0022af" d="M 306.550781 -0.00390625 L 320.460938 14.523438 L 327.25 14.523438 L 313.339844 -0.00390625 Z M 306.550781 -0.00390625 " fill-opacity="0.533" fill-rule="nonzero"/><g clip-path="url(#8f44165a83)"><g mask="url(#00348a2c5e)"><g transform="matrix(1, 0, 0, 1, 345, 39)"><g clip-path="url(#3931148b4f)"><g clip-path="url(#51206547f2)"><path fill="#015cfe" d="M 2.25 0.980469 L 24.441406 0.980469 L 24.441406 25.222656 Z M 2.25 0.980469 " fill-opacity="1" fill-rule="nonzero"/></g></g></g></g></g><g mask="url(#3b92d322df)"><g transform="matrix(1, 0, 0, 1, 351, 18)"><g clip-path="url(#c67f493fbc)"><g clip-path="url(#5d64d20139)"><path fill="#04006c" d="M 2.09375 1.089844 L 19.03125 1.089844 L 19.03125 19.59375 Z M 2.09375 1.089844 " fill-opacity="1" fill-rule="nonzero"/></g></g></g></g><g mask="url(#5d7cc72c44)"><g transform="matrix(1, 0, 0, 1, 334, 5)"><g clip-path="url(#539181c8ce)"><path fill="#015cfe" d="M 1.609375 1.746094 L 8.699219 1.746094 L 8.699219 9.496094 Z M 1.609375 1.746094 " fill-opacity="1" fill-rule="nonzero"/></g></g></g></svg>