<svg xmlns="http://www.w3.org/2000/svg" xmlns:xlink="http://www.w3.org/1999/xlink" width="816" zoomAndPan="magnify" viewBox="0 0 612 791.999994" height="1056" preserveAspectRatio="xMidYMid meet" version="1.0"><defs><clipPath id="90a6409f79"><path d="M 317.464844 1 L 612 1 L 612 502 L 317.464844 502 Z M 317.464844 1 " clip-rule="nonzero"/></clipPath><clipPath id="9af7eb0145"><path d="M 0 287 L 358.199219 287 L 358.199219 792 L 0 792 Z M 0 287 " clip-rule="nonzero"/></clipPath></defs><rect x="-61.2" width="734.4" fill="#ffffff" y="-79.199999" height="950.399992" fill-opacity="1"/><rect x="-61.2" width="734.4" fill="#ffffff" y="-79.199999" height="950.399992" fill-opacity="1"/><path fill="#06009b" d="M 611.992188 452.511719 L 611.992188 1.191406 L 387.632812 1.191406 L 510.640625 248.074219 Z M 611.992188 452.511719 " fill-opacity="1" fill-rule="nonzero"/><path fill="#04006c" d="M 611.992188 446.449219 L 611.992188 427.390625 L 522.769531 248.074219 L 505.445312 212.558594 L 410.15625 21.984375 L 399.761719 1.191406 L 390.230469 1.191406 L 513.238281 248.074219 L 514.105469 250.675781 Z M 611.992188 446.449219 " fill-opacity="1" fill-rule="nonzero"/><path fill="#0022af" d="M 579.941406 229.019531 L 559.152344 240.277344 L 545.292969 248.074219 L 410.15625 21.984375 L 398.027344 1.191406 L 469.925781 1.191406 L 476.855469 15.050781 L 558.285156 15.050781 L 611.992188 124.199219 L 611.992188 293.988281 Z M 579.941406 229.019531 " fill-opacity="1" fill-rule="nonzero"/><path fill="#015cfe" d="M 460.398438 248.074219 L 545.292969 248.074219 L 536.628906 230.75 L 422.28125 1.191406 L 337.390625 1.191406 Z M 458.664062 39.308594 L 543.558594 39.308594 L 611.992188 176.175781 L 611.992188 345.960938 L 559.152344 240.277344 Z M 458.664062 39.308594 " fill-opacity="1" fill-rule="nonzero"/><g clip-path="url(#90a6409f79)"><path fill="#cdd7d6" d="M 365.976562 98.214844 L 375.503906 98.214844 L 326.996094 1.191406 L 317.464844 1.191406 Z M 490.71875 258.46875 L 500.246094 258.46875 L 611.992188 482.832031 L 611.992188 501.890625 Z M 508.042969 39.308594 L 488.984375 1.191406 L 499.378906 1.191406 L 518.4375 39.308594 L 611.992188 228.152344 L 611.992188 247.210938 Z M 505.445312 248.074219 L 382.433594 1.191406 L 391.964844 1.191406 L 514.972656 248.074219 L 611.992188 442.984375 L 611.992188 462.039062 Z M 505.445312 248.074219 " fill-opacity="1" fill-rule="nonzero"/></g><path fill="#06009b" d="M 0.00390625 347.652344 L 0.00390625 896.535156 L 272.863281 896.535156 L 123.265625 596.28125 Z M 0.00390625 347.652344 " fill-opacity="1" fill-rule="nonzero"/><path fill="#04006c" d="M 0.00390625 355.027344 L 0.00390625 378.203125 L 108.515625 596.28125 L 129.585938 639.476562 L 245.472656 871.25 L 258.113281 896.535156 L 269.703125 896.535156 L 120.105469 596.28125 L 119.050781 593.121094 Z M 0.00390625 355.027344 " fill-opacity="1" fill-rule="nonzero"/><path fill="#0022af" d="M 38.984375 619.457031 L 64.265625 605.761719 L 81.125 596.28125 L 245.472656 871.25 L 260.222656 896.535156 L 172.78125 896.535156 L 164.351562 879.675781 L 65.320312 879.675781 L 0.00390625 746.933594 L 0.00390625 540.445312 Z M 38.984375 619.457031 " fill-opacity="1" fill-rule="nonzero"/><path fill="#015cfe" d="M 184.367188 596.28125 L 81.125 596.28125 L 91.660156 617.351562 L 230.722656 896.535156 L 333.96875 896.535156 Z M 186.476562 850.179688 L 83.230469 850.179688 L 0.00390625 683.722656 L 0.00390625 477.234375 L 64.265625 605.761719 Z M 186.476562 850.179688 " fill-opacity="1" fill-rule="nonzero"/><g clip-path="url(#9af7eb0145)"><path fill="#cdd7d6" d="M 299.203125 778.539062 L 287.613281 778.539062 L 346.609375 896.535156 L 358.199219 896.535156 Z M 147.496094 583.640625 L 135.90625 583.640625 L 0.00390625 310.777344 L 0.00390625 287.601562 Z M 126.425781 850.179688 L 141.175781 879.675781 L 149.601562 896.535156 L 136.960938 896.535156 L 128.53125 879.675781 L 113.78125 850.179688 L 0.00390625 620.511719 L 0.00390625 597.335938 Z M 129.585938 596.28125 L 279.183594 896.535156 L 267.597656 896.535156 L 117.996094 596.28125 L 0.00390625 359.242188 L 0.00390625 336.0625 Z M 129.585938 596.28125 " fill-opacity="1" fill-rule="nonzero"/></g></svg>