<svg xmlns="http://www.w3.org/2000/svg" xmlns:xlink="http://www.w3.org/1999/xlink" width="816" zoomAndPan="magnify" viewBox="0 0 612 791.999994" height="1056" preserveAspectRatio="xMidYMid meet" version="1.0"><defs><clipPath id="459f2f0339"><path d="M 370 687 L 406.375 687 L 406.375 759 L 370 759 Z M 370 687 " clip-rule="nonzero"/></clipPath><clipPath id="443c9f200e"><path d="M 333 723 L 406.375 723 L 406.375 792 L 333 792 Z M 333 723 " clip-rule="nonzero"/></clipPath><clipPath id="7ca837dab0"><path d="M 290.875 763 L 318 763 L 318 791 L 290.875 791 Z M 290.875 763 " clip-rule="nonzero"/></clipPath><clipPath id="7e855d561e"><path d="M 370 773 L 406.375 773 L 406.375 792 L 370 792 Z M 370 773 " clip-rule="nonzero"/></clipPath><clipPath id="b9aaca08cd"><path d="M 393 770 L 406.375 770 L 406.375 792 L 393 792 Z M 393 770 " clip-rule="nonzero"/></clipPath><clipPath id="89b0789b94"><path d="M 190 0 L 308 0 L 308 70 L 190 70 Z M 190 0 " clip-rule="nonzero"/></clipPath><clipPath id="bbdf9addd3"><path d="M 322.511719 -17.699219 L 292.71875 96.21875 L 189.683594 69.273438 L 219.476562 -44.644531 Z M 322.511719 -17.699219 " clip-rule="nonzero"/></clipPath><clipPath id="27110ee286"><path d="M 322.511719 -17.699219 L 292.71875 96.21875 L 189.683594 69.273438 L 219.476562 -44.644531 Z M 322.511719 -17.699219 " clip-rule="nonzero"/></clipPath><clipPath id="d072024b07"><path d="M 205 0 L 276 0 L 276 11 L 205 11 Z M 205 0 " clip-rule="nonzero"/></clipPath><clipPath id="db8f35db51"><path d="M 322.511719 -17.699219 L 292.71875 96.21875 L 189.683594 69.273438 L 219.476562 -44.644531 Z M 322.511719 -17.699219 " clip-rule="nonzero"/></clipPath><clipPath id="deb6c5490f"><path d="M 322.511719 -17.699219 L 292.71875 96.21875 L 189.683594 69.273438 L 219.476562 -44.644531 Z M 322.511719 -17.699219 " clip-rule="nonzero"/></clipPath><clipPath id="840eb81346"><path d="M 245 0 L 323 0 L 323 22 L 245 22 Z M 245 0 " clip-rule="nonzero"/></clipPath><clipPath id="1ea0eb76eb"><path d="M 322.511719 -17.699219 L 292.71875 96.21875 L 189.683594 69.273438 L 219.476562 -44.644531 Z M 322.511719 -17.699219 " clip-rule="nonzero"/></clipPath><clipPath id="92d53cd7c5"><path d="M 322.511719 -17.699219 L 292.71875 96.21875 L 189.683594 69.273438 L 219.476562 -44.644531 Z M 322.511719 -17.699219 " clip-rule="nonzero"/></clipPath><clipPath id="11c13d7a6f"><path d="M 196 0 L 287 0 L 287 46 L 196 46 Z M 196 0 " clip-rule="nonzero"/></clipPath><clipPath id="167a2f4ce9"><path d="M 322.511719 -17.699219 L 292.71875 96.21875 L 189.683594 69.273438 L 219.476562 -44.644531 Z M 322.511719 -17.699219 " clip-rule="nonzero"/></clipPath><clipPath id="206dafa5f6"><path d="M 322.511719 -17.699219 L 292.71875 96.21875 L 189.683594 69.273438 L 219.476562 -44.644531 Z M 322.511719 -17.699219 " clip-rule="nonzero"/></clipPath><clipPath id="a1b5c89090"><path d="M 360 0 L 415 0 L 415 10 L 360 10 Z M 360 0 " clip-rule="nonzero"/></clipPath><clipPath id="ca0ff7b6f5"><path d="M 429.777344 68.832031 L 315.550781 97.429688 L 289.6875 -5.882812 L 403.910156 -34.480469 Z M 429.777344 68.832031 " clip-rule="nonzero"/></clipPath><clipPath id="5fe5ca14e5"><path d="M 429.777344 68.832031 L 315.550781 97.429688 L 289.6875 -5.882812 L 403.910156 -34.480469 Z M 429.777344 68.832031 " clip-rule="nonzero"/></clipPath><clipPath id="2629a88241"><path d="M 289 0 L 413 0 L 413 65 L 289 65 Z M 289 0 " clip-rule="nonzero"/></clipPath><clipPath id="304e75984a"><path d="M 429.777344 68.832031 L 315.550781 97.429688 L 289.6875 -5.882812 L 403.910156 -34.480469 Z M 429.777344 68.832031 " clip-rule="nonzero"/></clipPath><clipPath id="473bd3a09a"><path d="M 429.777344 68.832031 L 315.550781 97.429688 L 289.6875 -5.882812 L 403.910156 -34.480469 Z M 429.777344 68.832031 " clip-rule="nonzero"/></clipPath><clipPath id="3037cef3c8"><path d="M 348 0 L 418 0 L 418 22 L 348 22 Z M 348 0 " clip-rule="nonzero"/></clipPath><clipPath id="4ecf68f6d7"><path d="M 429.777344 68.832031 L 315.550781 97.429688 L 289.6875 -5.882812 L 403.910156 -34.480469 Z M 429.777344 68.832031 " clip-rule="nonzero"/></clipPath><clipPath id="6a2a50d61d"><path d="M 429.777344 68.832031 L 315.550781 97.429688 L 289.6875 -5.882812 L 403.910156 -34.480469 Z M 429.777344 68.832031 " clip-rule="nonzero"/></clipPath><clipPath id="30eb2298fc"><path d="M 362 12 L 430 12 L 430 69 L 362 69 Z M 362 12 " clip-rule="nonzero"/></clipPath><clipPath id="688b431352"><path d="M 429.777344 68.832031 L 315.550781 97.429688 L 289.6875 -5.882812 L 403.910156 -34.480469 Z M 429.777344 68.832031 " clip-rule="nonzero"/></clipPath><clipPath id="a971a7067f"><path d="M 429.777344 68.832031 L 315.550781 97.429688 L 289.6875 -5.882812 L 403.910156 -34.480469 Z M 429.777344 68.832031 " clip-rule="nonzero"/></clipPath><clipPath id="21b284dcaf"><path d="M 313 0 L 413 0 L 413 43 L 313 43 Z M 313 0 " clip-rule="nonzero"/></clipPath><clipPath id="ccb3bb6360"><path d="M 429.777344 68.832031 L 315.550781 97.429688 L 289.6875 -5.882812 L 403.910156 -34.480469 Z M 429.777344 68.832031 " clip-rule="nonzero"/></clipPath><clipPath id="6c5adad070"><path d="M 429.777344 68.832031 L 315.550781 97.429688 L 289.6875 -5.882812 L 403.910156 -34.480469 Z M 429.777344 68.832031 " clip-rule="nonzero"/></clipPath></defs><rect x="-61.2" width="734.4" fill="#ffffff" y="-79.199999" height="950.399992" fill-opacity="1"/><rect x="-61.2" width="734.4" fill="#ffffff" y="-79.199999" height="950.399992" fill-opacity="1"/><g clip-path="url(#459f2f0339)"><path fill="#0022af" d="M 406.523438 687.058594 L 406.523438 758.839844 L 370.632812 722.949219 Z M 406.523438 687.058594 " fill-opacity="1" fill-rule="nonzero"/></g><g clip-path="url(#443c9f200e)"><path fill="#015cfe" d="M 406.523438 723.738281 L 406.523438 796.472656 L 406.3125 796.472656 L 406.285156 796.5 L 406.257812 796.472656 L 333.789062 796.472656 L 351.632812 778.628906 L 354.761719 775.496094 L 360.359375 769.902344 Z M 406.523438 723.738281 " fill-opacity="1" fill-rule="nonzero"/></g><g clip-path="url(#7ca837dab0)"><path fill="#015cfe" d="M 304.433594 790.761719 L 290.878906 777.210938 L 304.433594 763.65625 L 317.988281 777.210938 Z M 304.433594 790.761719 " fill-opacity="1" fill-rule="nonzero"/></g><g clip-path="url(#7e855d561e)"><path fill="#0022af" d="M 393.265625 773.082031 L 398.464844 778.277344 L 406.523438 786.339844 L 406.523438 796.472656 L 406.3125 796.472656 L 406.285156 796.5 L 406.257812 796.472656 L 371.394531 796.472656 L 370.632812 795.710938 Z M 393.265625 773.082031 " fill-opacity="1" fill-rule="nonzero"/></g><path fill="#015cfe" d="M 322.660156 779.371094 L 313.746094 770.457031 L 322.660156 761.542969 L 331.574219 770.457031 Z M 322.660156 779.371094 " fill-opacity="1" fill-rule="nonzero"/><g clip-path="url(#b9aaca08cd)"><path fill="#29292b" d="M 406.285156 770.457031 L 406.523438 770.695312 L 406.523438 796.261719 L 406.285156 796.5 L 406.257812 796.472656 L 393.265625 783.476562 Z M 406.285156 770.457031 " fill-opacity="1" fill-rule="nonzero"/></g><path fill="#0022af" d="M 338.105469 768.691406 L 347.289062 777.878906 L 365.882812 796.472656 L 310.324219 796.472656 Z M 338.105469 768.691406 " fill-opacity="1" fill-rule="nonzero"/><path fill="#0022af" d="M 356.980469 777.714844 L 338.105469 758.839844 L 356.980469 739.964844 L 375.855469 758.839844 Z M 356.980469 777.714844 " fill-opacity="1" fill-rule="nonzero"/><path fill="#29292b" d="M 370.632812 746.394531 L 349.433594 725.195312 L 370.632812 703.996094 L 391.832031 725.195312 Z M 370.632812 746.394531 " fill-opacity="1" fill-rule="nonzero"/><g clip-path="url(#89b0789b94)"><g clip-path="url(#bbdf9addd3)"><g clip-path="url(#27110ee286)"><path fill="#015cfe" d="M 190.054688 69.324219 L 194.136719 53.710938 L 253.566406 18.921875 L 301.582031 -9.183594 L 307.347656 0.664062 Z M 190.054688 69.324219 " fill-opacity="1" fill-rule="nonzero"/></g></g></g><g clip-path="url(#d072024b07)"><g clip-path="url(#db8f35db51)"><g clip-path="url(#deb6c5490f)"><path fill="#0022af" d="M 205.367188 10.769531 L 211.972656 -14.484375 L 249.902344 -36.6875 L 275.15625 -30.082031 Z M 205.367188 10.769531 " fill-opacity="1" fill-rule="nonzero"/></g></g></g><g clip-path="url(#840eb81346)"><g clip-path="url(#1ea0eb76eb)"><g clip-path="url(#92d53cd7c5)"><path fill="#0022af" d="M 255.191406 21.699219 L 253.566406 18.921875 L 245.871094 5.773438 L 281.703125 -15.199219 L 297.25 -24.304688 L 322.503906 -17.699219 Z M 255.191406 21.699219 " fill-opacity="1" fill-rule="nonzero"/></g></g></g><g clip-path="url(#11c13d7a6f)"><g clip-path="url(#167a2f4ce9)"><g clip-path="url(#206dafa5f6)"><path fill="#04006c" d="M 196.285156 45.492188 L 202.890625 20.242188 L 277.039062 -23.164062 L 286.363281 -7.238281 L 250.53125 13.738281 Z M 196.285156 45.492188 " fill-opacity="1" fill-rule="nonzero"/></g></g></g><g clip-path="url(#a1b5c89090)"><g clip-path="url(#ca0ff7b6f5)"><g clip-path="url(#5fe5ca14e5)"><path fill="#015cfe" d="M 360.792969 -23.300781 L 404 -34.121094 L 414.816406 9.085938 Z M 360.792969 -23.300781 " fill-opacity="1" fill-rule="nonzero"/></g></g></g><g clip-path="url(#2629a88241)"><g clip-path="url(#304e75984a)"><g clip-path="url(#473bd3a09a)"><path fill="#015cfe" d="M 289.820312 -5.53125 L 305.476562 -9.453125 L 364.535156 25.957031 L 412.253906 54.566406 L 406.386719 64.351562 Z M 289.820312 -5.53125 " fill-opacity="1" fill-rule="nonzero"/></g></g></g><g clip-path="url(#3037cef3c8)"><g clip-path="url(#4ecf68f6d7)"><g clip-path="url(#6a2a50d61d)"><path fill="#0022af" d="M 348.53125 -20.230469 L 373.851562 -26.570312 L 411.550781 -3.96875 L 417.886719 21.347656 Z M 348.53125 -20.230469 " fill-opacity="1" fill-rule="nonzero"/></g></g></g><g clip-path="url(#30eb2298fc)"><g clip-path="url(#688b431352)"><g clip-path="url(#a971a7067f)"><path fill="#0022af" d="M 362.882812 28.71875 L 364.535156 25.957031 L 372.371094 12.890625 L 407.980469 34.242188 L 423.433594 43.503906 L 429.773438 68.824219 Z M 362.882812 28.71875 " fill-opacity="1" fill-rule="nonzero"/></g></g></g><g clip-path="url(#21b284dcaf)"><g clip-path="url(#ccb3bb6360)"><g clip-path="url(#6c5adad070)"><path fill="#04006c" d="M 313.714844 -11.515625 L 339.035156 -17.855469 L 412.726562 26.324219 L 403.234375 42.15625 L 367.625 20.804688 Z M 313.714844 -11.515625 " fill-opacity="1" fill-rule="nonzero"/></g></g></g></svg>