<svg xmlns="http://www.w3.org/2000/svg" xmlns:xlink="http://www.w3.org/1999/xlink" width="816" zoomAndPan="magnify" viewBox="0 0 612 791.999994" height="1056" preserveAspectRatio="xMidYMid meet" version="1.0"><defs><filter x="0%" y="0%" width="100%" height="100%" id="abc632d54a"><feColorMatrix values="0 0 0 0 1 0 0 0 0 1 0 0 0 0 1 0 0 0 1 0" color-interpolation-filters="sRGB"/></filter><clipPath id="cbe1cefbfa"><path d="M 370 687 L 406.375 687 L 406.375 759 L 370 759 Z M 370 687 " clip-rule="nonzero"/></clipPath><clipPath id="a15ed2855d"><path d="M 333 723 L 406.375 723 L 406.375 792 L 333 792 Z M 333 723 " clip-rule="nonzero"/></clipPath><clipPath id="ad57df1fee"><path d="M 290.875 763 L 318 763 L 318 791 L 290.875 791 Z M 290.875 763 " clip-rule="nonzero"/></clipPath><clipPath id="926ec4902a"><path d="M 370 773 L 406.375 773 L 406.375 792 L 370 792 Z M 370 773 " clip-rule="nonzero"/></clipPath><clipPath id="780c5c05f7"><path d="M 393 770 L 406.375 770 L 406.375 792 L 393 792 Z M 393 770 " clip-rule="nonzero"/></clipPath><clipPath id="ce99691e01"><path d="M 234.605469 0 L 283 0 L 283 53 L 234.605469 53 Z M 234.605469 0 " clip-rule="nonzero"/></clipPath><clipPath id="6d4417a6e3"><path d="M 245 0 L 314.585938 0 L 314.585938 15 L 245 15 Z M 245 0 " clip-rule="nonzero"/></clipPath><mask id="e8297a0546"><g filter="url(#abc632d54a)"><rect x="-61.2" width="734.4" fill="#000000" y="-79.199999" height="950.399992" fill-opacity="0.532"/></g></mask><clipPath id="27a2d168dd"><rect x="0" width="31" y="0" height="32"/></clipPath><mask id="b7f80bbb10"><g filter="url(#abc632d54a)"><rect x="-61.2" width="734.4" fill="#000000" y="-79.199999" height="950.399992" fill-opacity="0.642"/></g></mask><clipPath id="83791dd6bd"><path d="M 2 2 L 23.921875 2 L 23.921875 17 L 2 17 Z M 2 2 " clip-rule="nonzero"/></clipPath><clipPath id="a1b5f9e372"><rect x="0" width="24" y="0" height="18"/></clipPath><mask id="578ac7035e"><g filter="url(#abc632d54a)"><rect x="-61.2" width="734.4" fill="#000000" y="-79.199999" height="950.399992" fill-opacity="0.346"/></g></mask><clipPath id="c55c5c5472"><rect x="0" width="25" y="0" height="18"/></clipPath><clipPath id="0a82debf59"><path d="M 241 39 L 267 39 L 267 64.5 L 241 64.5 Z M 241 39 " clip-rule="nonzero"/></clipPath><mask id="8eb7368e50"><g filter="url(#abc632d54a)"><rect x="-61.2" width="734.4" fill="#000000" y="-79.199999" height="950.399992" fill-opacity="0.532"/></g></mask><clipPath id="6cc2b86cb2"><path d="M 1 0.121094 L 24 0.121094 L 24 25.5 L 1 25.5 Z M 1 0.121094 " clip-rule="nonzero"/></clipPath><clipPath id="992e3101e5"><rect x="0" width="26" y="0" height="26"/></clipPath><mask id="7aab25bc56"><g filter="url(#abc632d54a)"><rect x="-61.2" width="734.4" fill="#000000" y="-79.199999" height="950.399992" fill-opacity="0.532"/></g></mask><clipPath id="04d8d8b108"><rect x="0" width="20" y="0" height="22"/></clipPath><mask id="738d724366"><g filter="url(#abc632d54a)"><rect x="-61.2" width="734.4" fill="#000000" y="-79.199999" height="950.399992" fill-opacity="0.532"/></g></mask><clipPath id="6ed52f748b"><rect x="0" width="10" y="0" height="12"/></clipPath><clipPath id="a9554d9d54"><path d="M 332 0 L 380.542969 0 L 380.542969 53 L 332 53 Z M 332 0 " clip-rule="nonzero"/></clipPath><clipPath id="1368085e47"><path d="M 300.292969 0 L 370 0 L 370 15 L 300.292969 15 Z M 300.292969 0 " clip-rule="nonzero"/></clipPath><mask id="a6574c1985"><g filter="url(#abc632d54a)"><rect x="-61.2" width="734.4" fill="#000000" y="-79.199999" height="950.399992" fill-opacity="0.532"/></g></mask><clipPath id="59a4cfdb25"><path d="M 2 0 L 30.359375 0 L 30.359375 31 L 2 31 Z M 2 0 " clip-rule="nonzero"/></clipPath><clipPath id="904273fea2"><rect x="0" width="31" y="0" height="32"/></clipPath><mask id="c919165d6d"><g filter="url(#abc632d54a)"><rect x="-61.2" width="734.4" fill="#000000" y="-79.199999" height="950.399992" fill-opacity="0.642"/></g></mask><clipPath id="4ce02a66ea"><path d="M 0.199219 2 L 22 2 L 22 17 L 0.199219 17 Z M 0.199219 2 " clip-rule="nonzero"/></clipPath><clipPath id="c6721cb241"><rect x="0" width="24" y="0" height="18"/></clipPath><mask id="284966194f"><g filter="url(#abc632d54a)"><rect x="-61.2" width="734.4" fill="#000000" y="-79.199999" height="950.399992" fill-opacity="0.346"/></g></mask><clipPath id="bc0783779d"><rect x="0" width="25" y="0" height="18"/></clipPath><clipPath id="0b9fe91fbd"><path d="M 348 39 L 374 39 L 374 64.5 L 348 64.5 Z M 348 39 " clip-rule="nonzero"/></clipPath><mask id="798fff249e"><g filter="url(#abc632d54a)"><rect x="-61.2" width="734.4" fill="#000000" y="-79.199999" height="950.399992" fill-opacity="0.532"/></g></mask><clipPath id="02204f031e"><path d="M 2 0.121094 L 25 0.121094 L 25 25.5 L 2 25.5 Z M 2 0.121094 " clip-rule="nonzero"/></clipPath><clipPath id="630bd3b3c1"><rect x="0" width="26" y="0" height="26"/></clipPath><mask id="369350b352"><g filter="url(#abc632d54a)"><rect x="-61.2" width="734.4" fill="#000000" y="-79.199999" height="950.399992" fill-opacity="0.532"/></g></mask><clipPath id="5399ae9b23"><path d="M 2 1 L 19.921875 1 L 19.921875 20 L 2 20 Z M 2 1 " clip-rule="nonzero"/></clipPath><clipPath id="153d7b4b14"><rect x="0" width="20" y="0" height="22"/></clipPath><mask id="1a39b3e56d"><g filter="url(#abc632d54a)"><rect x="-61.2" width="734.4" fill="#000000" y="-79.199999" height="950.399992" fill-opacity="0.532"/></g></mask><clipPath id="74d7c8919f"><rect x="0" width="10" y="0" height="12"/></clipPath></defs><rect x="-61.2" width="734.4" fill="#ffffff" y="-79.199999" height="950.399992" fill-opacity="1"/><rect x="-61.2" width="734.4" fill="#ffffff" y="-79.199999" height="950.399992" fill-opacity="1"/><g clip-path="url(#cbe1cefbfa)"><path fill="#0022af" d="M 406.523438 687.058594 L 406.523438 758.839844 L 370.632812 722.949219 Z M 406.523438 687.058594 " fill-opacity="1" fill-rule="nonzero"/></g><g clip-path="url(#a15ed2855d)"><path fill="#015cfe" d="M 406.523438 723.738281 L 406.523438 796.472656 L 406.3125 796.472656 L 406.285156 796.5 L 406.257812 796.472656 L 333.789062 796.472656 L 351.632812 778.628906 L 354.761719 775.496094 L 360.359375 769.902344 Z M 406.523438 723.738281 " fill-opacity="1" fill-rule="nonzero"/></g><g clip-path="url(#ad57df1fee)"><path fill="#015cfe" d="M 304.433594 790.761719 L 290.878906 777.210938 L 304.433594 763.65625 L 317.988281 777.210938 Z M 304.433594 790.761719 " fill-opacity="1" fill-rule="nonzero"/></g><g clip-path="url(#926ec4902a)"><path fill="#0022af" d="M 393.265625 773.082031 L 398.464844 778.277344 L 406.523438 786.339844 L 406.523438 796.472656 L 406.3125 796.472656 L 406.285156 796.5 L 406.257812 796.472656 L 371.394531 796.472656 L 370.632812 795.710938 Z M 393.265625 773.082031 " fill-opacity="1" fill-rule="nonzero"/></g><path fill="#015cfe" d="M 322.660156 779.371094 L 313.746094 770.457031 L 322.660156 761.542969 L 331.574219 770.457031 Z M 322.660156 779.371094 " fill-opacity="1" fill-rule="nonzero"/><g clip-path="url(#780c5c05f7)"><path fill="#29292b" d="M 406.285156 770.457031 L 406.523438 770.695312 L 406.523438 796.261719 L 406.285156 796.5 L 406.257812 796.472656 L 393.265625 783.476562 Z M 406.285156 770.457031 " fill-opacity="1" fill-rule="nonzero"/></g><path fill="#0022af" d="M 338.105469 768.691406 L 347.289062 777.878906 L 365.882812 796.472656 L 310.324219 796.472656 Z M 338.105469 768.691406 " fill-opacity="1" fill-rule="nonzero"/><path fill="#0022af" d="M 356.980469 777.714844 L 338.105469 758.839844 L 356.980469 739.964844 L 375.855469 758.839844 Z M 356.980469 777.714844 " fill-opacity="1" fill-rule="nonzero"/><path fill="#29292b" d="M 370.632812 746.394531 L 349.433594 725.195312 L 370.632812 703.996094 L 391.832031 725.195312 Z M 370.632812 746.394531 " fill-opacity="1" fill-rule="nonzero"/><g clip-path="url(#ce99691e01)"><path fill="#015cfe" d="M 282.679688 -0.00390625 L 234.628906 -0.00390625 L 234.628906 52.492188 Z M 282.679688 -0.00390625 " fill-opacity="1" fill-rule="nonzero"/></g><g clip-path="url(#6d4417a6e3)"><path fill="#04006c" d="M 314.5625 -0.00390625 L 300.652344 14.523438 L 245.507812 14.523438 L 259.417969 -0.00390625 Z M 314.5625 -0.00390625 " fill-opacity="1" fill-rule="nonzero"/></g><g mask="url(#e8297a0546)"><g transform="matrix(1, 0, 0, 1, 251, 18)"><g clip-path="url(#27a2d168dd)"><path fill="#015cfe" d="M 28.417969 0.453125 L 1.140625 0.453125 L 1.140625 30.25 Z M 28.417969 0.453125 " fill-opacity="1" fill-rule="nonzero"/></g></g></g><path fill="#04006c" d="M 278.425781 15.472656 L 264.515625 29.996094 L 257.726562 29.996094 L 271.636719 15.472656 Z M 278.425781 15.472656 " fill-opacity="1" fill-rule="nonzero"/><g mask="url(#b7f80bbb10)"><g transform="matrix(1, 0, 0, 1, 266, 13)"><g clip-path="url(#a1b5f9e372)"><g clip-path="url(#83791dd6bd)"><path fill="#04006c" d="M 23.164062 2.472656 L 9.253906 16.996094 L 2.46875 16.996094 L 16.378906 2.472656 Z M 23.164062 2.472656 " fill-opacity="1" fill-rule="nonzero"/></g></g></g></g><g mask="url(#578ac7035e)"><g transform="matrix(1, 0, 0, 1, 276, 13)"><g clip-path="url(#c55c5c5472)"><path fill="#04006c" d="M 23.480469 2.472656 L 9.570312 16.996094 L 2.785156 16.996094 L 16.695312 2.472656 Z M 23.480469 2.472656 " fill-opacity="1" fill-rule="nonzero"/></g></g></g><path fill="#0022af" d="M 305.519531 -0.00390625 L 291.613281 14.523438 L 284.824219 14.523438 L 298.734375 -0.00390625 Z M 305.519531 -0.00390625 " fill-opacity="0.533" fill-rule="nonzero"/><g clip-path="url(#0a82debf59)"><g mask="url(#8eb7368e50)"><g transform="matrix(1, 0, 0, 1, 241, 39)"><g clip-path="url(#992e3101e5)"><g clip-path="url(#6cc2b86cb2)"><path fill="#015cfe" d="M 23.820312 0.980469 L 1.632812 0.980469 L 1.632812 25.222656 Z M 23.820312 0.980469 " fill-opacity="1" fill-rule="nonzero"/></g></g></g></g></g><g mask="url(#7aab25bc56)"><g transform="matrix(1, 0, 0, 1, 241, 18)"><g clip-path="url(#04d8d8b108)"><path fill="#04006c" d="M 17.980469 1.089844 L 1.042969 1.089844 L 1.042969 19.59375 Z M 17.980469 1.089844 " fill-opacity="1" fill-rule="nonzero"/></g></g></g><g mask="url(#738d724366)"><g transform="matrix(1, 0, 0, 1, 268, 5)"><g clip-path="url(#6ed52f748b)"><path fill="#015cfe" d="M 8.464844 1.746094 L 1.371094 1.746094 L 1.371094 9.496094 Z M 8.464844 1.746094 " fill-opacity="1" fill-rule="nonzero"/></g></g></g><g clip-path="url(#a9554d9d54)"><path fill="#015cfe" d="M 332.46875 -0.00390625 L 380.519531 -0.00390625 L 380.519531 52.492188 Z M 332.46875 -0.00390625 " fill-opacity="1" fill-rule="nonzero"/></g><g clip-path="url(#1368085e47)"><path fill="#04006c" d="M 300.585938 -0.00390625 L 314.496094 14.523438 L 369.640625 14.523438 L 355.730469 -0.00390625 Z M 300.585938 -0.00390625 " fill-opacity="1" fill-rule="nonzero"/></g><g mask="url(#a6574c1985)"><g transform="matrix(1, 0, 0, 1, 333, 18)"><g clip-path="url(#904273fea2)"><g clip-path="url(#59a4cfdb25)"><path fill="#015cfe" d="M 2.730469 0.453125 L 30.007812 0.453125 L 30.007812 30.25 Z M 2.730469 0.453125 " fill-opacity="1" fill-rule="nonzero"/></g></g></g></g><path fill="#04006c" d="M 336.722656 15.472656 L 350.632812 29.996094 L 357.421875 29.996094 L 343.511719 15.472656 Z M 336.722656 15.472656 " fill-opacity="1" fill-rule="nonzero"/><g mask="url(#c919165d6d)"><g transform="matrix(1, 0, 0, 1, 325, 13)"><g clip-path="url(#c6721cb241)"><g clip-path="url(#4ce02a66ea)"><path fill="#04006c" d="M 0.984375 2.472656 L 14.894531 16.996094 L 21.679688 16.996094 L 7.769531 2.472656 Z M 0.984375 2.472656 " fill-opacity="1" fill-rule="nonzero"/></g></g></g></g><g mask="url(#284966194f)"><g transform="matrix(1, 0, 0, 1, 314, 13)"><g clip-path="url(#bc0783779d)"><path fill="#04006c" d="M 1.667969 2.472656 L 15.578125 16.996094 L 22.363281 16.996094 L 8.453125 2.472656 Z M 1.667969 2.472656 " fill-opacity="1" fill-rule="nonzero"/></g></g></g><path fill="#0022af" d="M 309.628906 -0.00390625 L 323.535156 14.523438 L 330.324219 14.523438 L 316.414062 -0.00390625 Z M 309.628906 -0.00390625 " fill-opacity="0.533" fill-rule="nonzero"/><g clip-path="url(#0b9fe91fbd)"><g mask="url(#798fff249e)"><g transform="matrix(1, 0, 0, 1, 348, 39)"><g clip-path="url(#630bd3b3c1)"><g clip-path="url(#02204f031e)"><path fill="#015cfe" d="M 2.328125 0.980469 L 24.515625 0.980469 L 24.515625 25.222656 Z M 2.328125 0.980469 " fill-opacity="1" fill-rule="nonzero"/></g></g></g></g></g><g mask="url(#369350b352)"><g transform="matrix(1, 0, 0, 1, 354, 18)"><g clip-path="url(#153d7b4b14)"><g clip-path="url(#5399ae9b23)"><path fill="#04006c" d="M 2.167969 1.089844 L 19.105469 1.089844 L 19.105469 19.59375 Z M 2.167969 1.089844 " fill-opacity="1" fill-rule="nonzero"/></g></g></g></g><g mask="url(#1a39b3e56d)"><g transform="matrix(1, 0, 0, 1, 337, 5)"><g clip-path="url(#74d7c8919f)"><path fill="#015cfe" d="M 1.683594 1.746094 L 8.777344 1.746094 L 8.777344 9.496094 Z M 1.683594 1.746094 " fill-opacity="1" fill-rule="nonzero"/></g></g></g></svg>