<svg xmlns="http://www.w3.org/2000/svg" xmlns:xlink="http://www.w3.org/1999/xlink" width="816" zoomAndPan="magnify" viewBox="0 0 612 791.999994" height="1056" preserveAspectRatio="xMidYMid meet" version="1.0"><defs><filter x="0%" y="0%" width="100%" height="100%" id="9ecf5a5724"><feColorMatrix values="0 0 0 0 1 0 0 0 0 1 0 0 0 0 1 0 0 0 1 0" color-interpolation-filters="sRGB"/></filter><clipPath id="6e958e9418"><path d="M 370 687 L 406.375 687 L 406.375 759 L 370 759 Z M 370 687 " clip-rule="nonzero"/></clipPath><clipPath id="a0f53ff098"><path d="M 333 723 L 406.375 723 L 406.375 792 L 333 792 Z M 333 723 " clip-rule="nonzero"/></clipPath><clipPath id="e5d717ced2"><path d="M 290.875 763 L 318 763 L 318 791 L 290.875 791 Z M 290.875 763 " clip-rule="nonzero"/></clipPath><clipPath id="09f1d2f4cf"><path d="M 370 773 L 406.375 773 L 406.375 792 L 370 792 Z M 370 773 " clip-rule="nonzero"/></clipPath><clipPath id="9dc6035b81"><path d="M 393 770 L 406.375 770 L 406.375 792 L 393 792 Z M 393 770 " clip-rule="nonzero"/></clipPath><clipPath id="a659050608"><path d="M 237.53125 0 L 286 0 L 286 53 L 237.53125 53 Z M 237.53125 0 " clip-rule="nonzero"/></clipPath><clipPath id="44bfc4234e"><path d="M 248 0 L 317.511719 0 L 317.511719 15 L 248 15 Z M 248 0 " clip-rule="nonzero"/></clipPath><mask id="2ba1d92c80"><g filter="url(#9ecf5a5724)"><rect x="-61.2" width="734.4" fill="#000000" y="-79.199999" height="950.399992" fill-opacity="0.532"/></g></mask><clipPath id="359a0d3a18"><rect x="0" width="31" y="0" height="32"/></clipPath><mask id="8a34ed4904"><g filter="url(#9ecf5a5724)"><rect x="-61.2" width="734.4" fill="#000000" y="-79.199999" height="950.399992" fill-opacity="0.642"/></g></mask><clipPath id="a9dd1407c5"><path d="M 2 2 L 23.800781 2 L 23.800781 17 L 2 17 Z M 2 2 " clip-rule="nonzero"/></clipPath><clipPath id="1e25867d43"><rect x="0" width="24" y="0" height="18"/></clipPath><mask id="0dd43d5ffb"><g filter="url(#9ecf5a5724)"><rect x="-61.2" width="734.4" fill="#000000" y="-79.199999" height="950.399992" fill-opacity="0.346"/></g></mask><clipPath id="6f2c547072"><rect x="0" width="24" y="0" height="18"/></clipPath><clipPath id="d914c7411c"><path d="M 244 39 L 270 39 L 270 64.5 L 244 64.5 Z M 244 39 " clip-rule="nonzero"/></clipPath><mask id="a4140941cb"><g filter="url(#9ecf5a5724)"><rect x="-61.2" width="734.4" fill="#000000" y="-79.199999" height="950.399992" fill-opacity="0.532"/></g></mask><clipPath id="9d21c32e2a"><path d="M 1 0.121094 L 24 0.121094 L 24 25.5 L 1 25.5 Z M 1 0.121094 " clip-rule="nonzero"/></clipPath><clipPath id="20b82c909a"><rect x="0" width="26" y="0" height="26"/></clipPath><mask id="5b8483b12c"><g filter="url(#9ecf5a5724)"><rect x="-61.2" width="734.4" fill="#000000" y="-79.199999" height="950.399992" fill-opacity="0.532"/></g></mask><clipPath id="578aa2cbbe"><path d="M 0.320312 1 L 18 1 L 18 20 L 0.320312 20 Z M 0.320312 1 " clip-rule="nonzero"/></clipPath><clipPath id="e3053cc10e"><rect x="0" width="20" y="0" height="22"/></clipPath><mask id="33b973aedf"><g filter="url(#9ecf5a5724)"><rect x="-61.2" width="734.4" fill="#000000" y="-79.199999" height="950.399992" fill-opacity="0.532"/></g></mask><clipPath id="93e3873353"><rect x="0" width="10" y="0" height="12"/></clipPath><clipPath id="4b44f0fe6b"><path d="M 335 0 L 383.464844 0 L 383.464844 53 L 335 53 Z M 335 0 " clip-rule="nonzero"/></clipPath><clipPath id="74f3aab17e"><path d="M 303.214844 0 L 373 0 L 373 15 L 303.214844 15 Z M 303.214844 0 " clip-rule="nonzero"/></clipPath><mask id="64b3caf3f5"><g filter="url(#9ecf5a5724)"><rect x="-61.2" width="734.4" fill="#000000" y="-79.199999" height="950.399992" fill-opacity="0.532"/></g></mask><clipPath id="aed23a909d"><rect x="0" width="31" y="0" height="32"/></clipPath><mask id="8a94d47362"><g filter="url(#9ecf5a5724)"><rect x="-61.2" width="734.4" fill="#000000" y="-79.199999" height="950.399992" fill-opacity="0.642"/></g></mask><clipPath id="239aaee5e8"><path d="M 0.078125 2 L 22 2 L 22 17 L 0.078125 17 Z M 0.078125 2 " clip-rule="nonzero"/></clipPath><clipPath id="98fc9c39ee"><rect x="0" width="24" y="0" height="18"/></clipPath><mask id="84ee642baf"><g filter="url(#9ecf5a5724)"><rect x="-61.2" width="734.4" fill="#000000" y="-79.199999" height="950.399992" fill-opacity="0.346"/></g></mask><clipPath id="510246d594"><rect x="0" width="25" y="0" height="18"/></clipPath><clipPath id="19a5f835d0"><path d="M 351 39 L 377 39 L 377 64.5 L 351 64.5 Z M 351 39 " clip-rule="nonzero"/></clipPath><mask id="1fe55321a5"><g filter="url(#9ecf5a5724)"><rect x="-61.2" width="734.4" fill="#000000" y="-79.199999" height="950.399992" fill-opacity="0.532"/></g></mask><clipPath id="447d6de0d1"><path d="M 2 0.121094 L 25 0.121094 L 25 25.5 L 2 25.5 Z M 2 0.121094 " clip-rule="nonzero"/></clipPath><clipPath id="59a4a1494f"><rect x="0" width="26" y="0" height="26"/></clipPath><mask id="e0b03aab62"><g filter="url(#9ecf5a5724)"><rect x="-61.2" width="734.4" fill="#000000" y="-79.199999" height="950.399992" fill-opacity="0.532"/></g></mask><clipPath id="4575885b2b"><path d="M 2 1 L 19.800781 1 L 19.800781 20 L 2 20 Z M 2 1 " clip-rule="nonzero"/></clipPath><clipPath id="cc441228a4"><rect x="0" width="20" y="0" height="22"/></clipPath><mask id="3ba323f78a"><g filter="url(#9ecf5a5724)"><rect x="-61.2" width="734.4" fill="#000000" y="-79.199999" height="950.399992" fill-opacity="0.532"/></g></mask><clipPath id="98908a1a10"><rect x="0" width="10" y="0" height="12"/></clipPath></defs><rect x="-61.2" width="734.4" fill="#ffffff" y="-79.199999" height="950.399992" fill-opacity="1"/><rect x="-61.2" width="734.4" fill="#ffffff" y="-79.199999" height="950.399992" fill-opacity="1"/><g clip-path="url(#6e958e9418)"><path fill="#0022af" d="M 406.523438 687.058594 L 406.523438 758.839844 L 370.632812 722.949219 Z M 406.523438 687.058594 " fill-opacity="1" fill-rule="nonzero"/></g><g clip-path="url(#a0f53ff098)"><path fill="#015cfe" d="M 406.523438 723.738281 L 406.523438 796.472656 L 406.3125 796.472656 L 406.285156 796.5 L 406.257812 796.472656 L 333.789062 796.472656 L 351.632812 778.628906 L 354.761719 775.496094 L 360.359375 769.902344 Z M 406.523438 723.738281 " fill-opacity="1" fill-rule="nonzero"/></g><g clip-path="url(#e5d717ced2)"><path fill="#015cfe" d="M 304.433594 790.761719 L 290.878906 777.210938 L 304.433594 763.65625 L 317.988281 777.210938 Z M 304.433594 790.761719 " fill-opacity="1" fill-rule="nonzero"/></g><g clip-path="url(#09f1d2f4cf)"><path fill="#0022af" d="M 393.265625 773.082031 L 398.464844 778.277344 L 406.523438 786.339844 L 406.523438 796.472656 L 406.3125 796.472656 L 406.285156 796.5 L 406.257812 796.472656 L 371.394531 796.472656 L 370.632812 795.710938 Z M 393.265625 773.082031 " fill-opacity="1" fill-rule="nonzero"/></g><path fill="#015cfe" d="M 322.660156 779.371094 L 313.746094 770.457031 L 322.660156 761.542969 L 331.574219 770.457031 Z M 322.660156 779.371094 " fill-opacity="1" fill-rule="nonzero"/><g clip-path="url(#9dc6035b81)"><path fill="#29292b" d="M 406.285156 770.457031 L 406.523438 770.695312 L 406.523438 796.261719 L 406.285156 796.5 L 406.257812 796.472656 L 393.265625 783.476562 Z M 406.285156 770.457031 " fill-opacity="1" fill-rule="nonzero"/></g><path fill="#0022af" d="M 338.105469 768.691406 L 347.289062 777.878906 L 365.882812 796.472656 L 310.324219 796.472656 Z M 338.105469 768.691406 " fill-opacity="1" fill-rule="nonzero"/><path fill="#0022af" d="M 356.980469 777.714844 L 338.105469 758.839844 L 356.980469 739.964844 L 375.855469 758.839844 Z M 356.980469 777.714844 " fill-opacity="1" fill-rule="nonzero"/><path fill="#29292b" d="M 370.632812 746.394531 L 349.433594 725.195312 L 370.632812 703.996094 L 391.832031 725.195312 Z M 370.632812 746.394531 " fill-opacity="1" fill-rule="nonzero"/><g clip-path="url(#a659050608)"><path fill="#015cfe" d="M 285.601562 -0.00390625 L 237.554688 -0.00390625 L 237.554688 52.492188 Z M 285.601562 -0.00390625 " fill-opacity="1" fill-rule="nonzero"/></g><g clip-path="url(#44bfc4234e)"><path fill="#04006c" d="M 317.484375 -0.00390625 L 303.574219 14.523438 L 248.429688 14.523438 L 262.339844 -0.00390625 Z M 317.484375 -0.00390625 " fill-opacity="1" fill-rule="nonzero"/></g><g mask="url(#2ba1d92c80)"><g transform="matrix(1, 0, 0, 1, 254, 18)"><g clip-path="url(#359a0d3a18)"><path fill="#015cfe" d="M 28.34375 0.453125 L 1.066406 0.453125 L 1.066406 30.25 Z M 28.34375 0.453125 " fill-opacity="1" fill-rule="nonzero"/></g></g></g><path fill="#04006c" d="M 281.347656 15.472656 L 267.4375 29.996094 L 260.652344 29.996094 L 274.5625 15.472656 Z M 281.347656 15.472656 " fill-opacity="1" fill-rule="nonzero"/><g mask="url(#8a34ed4904)"><g transform="matrix(1, 0, 0, 1, 269, 13)"><g clip-path="url(#1e25867d43)"><g clip-path="url(#a9dd1407c5)"><path fill="#04006c" d="M 23.089844 2.472656 L 9.179688 16.996094 L 2.390625 16.996094 L 16.300781 2.472656 Z M 23.089844 2.472656 " fill-opacity="1" fill-rule="nonzero"/></g></g></g></g><g mask="url(#0dd43d5ffb)"><g transform="matrix(1, 0, 0, 1, 280, 13)"><g clip-path="url(#6f2c547072)"><path fill="#04006c" d="M 22.40625 2.472656 L 8.496094 16.996094 L 1.707031 16.996094 L 15.617188 2.472656 Z M 22.40625 2.472656 " fill-opacity="1" fill-rule="nonzero"/></g></g></g><path fill="#0022af" d="M 308.445312 -0.00390625 L 294.535156 14.523438 L 287.75 14.523438 L 301.65625 -0.00390625 Z M 308.445312 -0.00390625 " fill-opacity="0.533" fill-rule="nonzero"/><g clip-path="url(#d914c7411c)"><g mask="url(#a4140941cb)"><g transform="matrix(1, 0, 0, 1, 244, 39)"><g clip-path="url(#20b82c909a)"><g clip-path="url(#9d21c32e2a)"><path fill="#015cfe" d="M 23.746094 0.980469 L 1.554688 0.980469 L 1.554688 25.222656 Z M 23.746094 0.980469 " fill-opacity="1" fill-rule="nonzero"/></g></g></g></g></g><g mask="url(#5b8483b12c)"><g transform="matrix(1, 0, 0, 1, 244, 18)"><g clip-path="url(#e3053cc10e)"><g clip-path="url(#578aa2cbbe)"><path fill="#04006c" d="M 17.902344 1.089844 L 0.964844 1.089844 L 0.964844 19.59375 Z M 17.902344 1.089844 " fill-opacity="1" fill-rule="nonzero"/></g></g></g></g><g mask="url(#33b973aedf)"><g transform="matrix(1, 0, 0, 1, 271, 5)"><g clip-path="url(#93e3873353)"><path fill="#015cfe" d="M 8.390625 1.746094 L 1.296875 1.746094 L 1.296875 9.496094 Z M 8.390625 1.746094 " fill-opacity="1" fill-rule="nonzero"/></g></g></g><g clip-path="url(#4b44f0fe6b)"><path fill="#015cfe" d="M 335.394531 -0.00390625 L 383.441406 -0.00390625 L 383.441406 52.492188 Z M 335.394531 -0.00390625 " fill-opacity="1" fill-rule="nonzero"/></g><g clip-path="url(#74f3aab17e)"><path fill="#04006c" d="M 303.511719 -0.00390625 L 317.421875 14.523438 L 372.566406 14.523438 L 358.65625 -0.00390625 Z M 303.511719 -0.00390625 " fill-opacity="1" fill-rule="nonzero"/></g><g mask="url(#64b3caf3f5)"><g transform="matrix(1, 0, 0, 1, 336, 18)"><g clip-path="url(#aed23a909d)"><path fill="#015cfe" d="M 2.652344 0.453125 L 29.929688 0.453125 L 29.929688 30.25 Z M 2.652344 0.453125 " fill-opacity="1" fill-rule="nonzero"/></g></g></g><path fill="#04006c" d="M 339.648438 15.472656 L 353.558594 29.996094 L 360.34375 29.996094 L 346.433594 15.472656 Z M 339.648438 15.472656 " fill-opacity="1" fill-rule="nonzero"/><g mask="url(#8a94d47362)"><g transform="matrix(1, 0, 0, 1, 328, 13)"><g clip-path="url(#98fc9c39ee)"><g clip-path="url(#239aaee5e8)"><path fill="#04006c" d="M 0.90625 2.472656 L 14.816406 16.996094 L 21.601562 16.996094 L 7.695312 2.472656 Z M 0.90625 2.472656 " fill-opacity="1" fill-rule="nonzero"/></g></g></g></g><g mask="url(#84ee642baf)"><g transform="matrix(1, 0, 0, 1, 317, 13)"><g clip-path="url(#510246d594)"><path fill="#04006c" d="M 1.589844 2.472656 L 15.5 16.996094 L 22.289062 16.996094 L 8.378906 2.472656 Z M 1.589844 2.472656 " fill-opacity="1" fill-rule="nonzero"/></g></g></g><path fill="#0022af" d="M 312.550781 -0.00390625 L 326.460938 14.523438 L 333.246094 14.523438 L 319.335938 -0.00390625 Z M 312.550781 -0.00390625 " fill-opacity="0.533" fill-rule="nonzero"/><g clip-path="url(#19a5f835d0)"><g mask="url(#1fe55321a5)"><g transform="matrix(1, 0, 0, 1, 351, 39)"><g clip-path="url(#59a4a1494f)"><g clip-path="url(#447d6de0d1)"><path fill="#015cfe" d="M 2.25 0.980469 L 24.441406 0.980469 L 24.441406 25.222656 Z M 2.25 0.980469 " fill-opacity="1" fill-rule="nonzero"/></g></g></g></g></g><g mask="url(#e0b03aab62)"><g transform="matrix(1, 0, 0, 1, 357, 18)"><g clip-path="url(#cc441228a4)"><g clip-path="url(#4575885b2b)"><path fill="#04006c" d="M 2.09375 1.089844 L 19.03125 1.089844 L 19.03125 19.59375 Z M 2.09375 1.089844 " fill-opacity="1" fill-rule="nonzero"/></g></g></g></g><g mask="url(#3ba323f78a)"><g transform="matrix(1, 0, 0, 1, 340, 5)"><g clip-path="url(#98908a1a10)"><path fill="#015cfe" d="M 1.605469 1.746094 L 8.699219 1.746094 L 8.699219 9.496094 Z M 1.605469 1.746094 " fill-opacity="1" fill-rule="nonzero"/></g></g></g></svg>